<svg xmlns="http://www.w3.org/2000/svg" xmlns:xlink="http://www.w3.org/1999/xlink" width="184" zoomAndPan="magnify" viewBox="0 0 138 38.999999" height="52" preserveAspectRatio="xMidYMid meet" version="1.0"><defs><filter x="0%" y="0%" width="100%" height="100%" id="8fe5a266c7"><feColorMatrix values="0 0 0 0 1 0 0 0 0 1 0 0 0 0 1 0 0 0 1 0" color-interpolation-filters="sRGB"/></filter><g/><clipPath id="9bce0703d2"><path d="M 32 8.6875 L 42.890625 8.6875 L 42.890625 18 L 32 18 Z M 32 8.6875 " clip-rule="nonzero"/></clipPath><mask id="9b5b7d2edc"><g filter="url(#8fe5a266c7)"><rect x="-13.8" width="165.6" fill="#000000" y="-3.9" height="46.799999" fill-opacity="0.24"/></g></mask><clipPath id="64566e95af"><path d="M 2 4 L 4 4 L 4 5.121094 L 2 5.121094 Z M 2 4 " clip-rule="nonzero"/></clipPath><clipPath id="657ae864c3"><path d="M 0.320312 0.078125 L 7.28125 0.078125 L 7.28125 5 L 0.320312 5 Z M 0.320312 0.078125 " clip-rule="nonzero"/></clipPath><clipPath id="6bb6cd90fd"><rect x="0" width="8" y="0" height="6"/></clipPath><clipPath id="af670d568e"><path d="M 21 8.6875 L 42.890625 8.6875 L 42.890625 30.4375 L 21 30.4375 Z M 21 8.6875 " clip-rule="nonzero"/></clipPath><clipPath id="32c8da851a"><path d="M 25 8.6875 L 42.890625 8.6875 L 42.890625 30.4375 L 25 30.4375 Z M 25 8.6875 " clip-rule="nonzero"/></clipPath><mask id="a39acdff7d"><g filter="url(#8fe5a266c7)"><rect x="-13.8" width="165.6" fill="#000000" y="-3.9" height="46.799999" fill-opacity="0.15"/></g></mask><clipPath id="a9d6a6d9ec"><path d="M 1 0.6875 L 11 0.6875 L 11 5 L 1 5 Z M 1 0.6875 " clip-rule="nonzero"/></clipPath><clipPath id="e8996aa70f"><path d="M 1 3 L 17.890625 3 L 17.890625 22.4375 L 1 22.4375 Z M 1 3 " clip-rule="nonzero"/></clipPath><clipPath id="a59a2ae14d"><rect x="0" width="18" y="0" height="23"/></clipPath><clipPath id="2af0a56768"><path d="M 21 9 L 42.890625 9 L 42.890625 30 L 21 30 Z M 21 9 " clip-rule="nonzero"/></clipPath><mask id="037511e067"><g filter="url(#8fe5a266c7)"><rect x="-13.8" width="165.6" fill="#000000" y="-3.9" height="46.799999" fill-opacity="0.13"/></g></mask><clipPath id="44e54c71e0"><path d="M 12 0.601562 L 14 0.601562 L 14 3 L 12 3 Z M 12 0.601562 " clip-rule="nonzero"/></clipPath><clipPath id="6b857442ae"><path d="M 19 5 L 21.238281 5 L 21.238281 12 L 19 12 Z M 19 5 " clip-rule="nonzero"/></clipPath><clipPath id="03abcfd5d1"><path d="M 0.839844 11 L 20 11 L 20 21 L 0.839844 21 Z M 0.839844 11 " clip-rule="nonzero"/></clipPath><clipPath id="cf86d9f20a"><rect x="0" width="22" y="0" height="21"/></clipPath></defs><g clip-path="url(#9bce0703d2)"><path fill="#d68c45" d="M 42.058594 15.828125 C 42.058594 16.011719 41.984375 16.203125 41.855469 16.394531 C 41.847656 16.40625 41.835938 16.417969 41.828125 16.429688 C 41.675781 16.628906 41.5 16.804688 41.300781 16.949219 C 40.519531 17.539062 39.246094 18 37.988281 17.945312 C 36.695312 17.890625 35.769531 17.304688 35.316406 17.011719 C 34.921875 16.757812 33.558594 15.871094 32.984375 14.210938 C 32.738281 13.5 32.667969 12.738281 32.71875 12.023438 C 32.792969 10.957031 33.128906 9.992188 33.539062 9.441406 C 33.746094 9.160156 33.972656 8.988281 34.195312 8.96875 C 34.792969 8.90625 35.652344 9.894531 35.5625 10.632812 C 35.527344 10.945312 35.324219 11.160156 35.292969 11.390625 C 35.28125 11.460938 35.289062 11.53125 35.316406 11.597656 C 35.375 11.761719 35.507812 11.828125 35.699219 11.917969 C 35.804688 11.964844 35.925781 12.019531 36.0625 12.09375 C 36.800781 12.511719 36.761719 12.941406 37.367188 13.371094 C 37.789062 13.671875 38.195312 13.722656 39.011719 13.835938 C 40.355469 14.023438 40.839844 13.714844 41.328125 14.148438 C 41.601562 14.390625 41.773438 14.773438 41.84375 14.953125 C 41.851562 14.972656 41.859375 14.988281 41.867188 15.003906 C 41.984375 15.296875 42.0625 15.636719 42.058594 15.828125 Z M 42.058594 15.828125 " fill-opacity="1" fill-rule="nonzero"/></g><path fill="#f2d3bd" d="M 34.773438 10.292969 C 34.851562 10.324219 34.894531 10.394531 34.941406 10.484375 C 35.148438 10.84375 34.914062 11.085938 35.035156 11.488281 C 35.121094 11.765625 35.324219 11.941406 35.558594 12.148438 C 35.765625 12.328125 35.867188 12.355469 36.085938 12.5 C 36.582031 12.832031 36.636719 13.082031 37.003906 13.398438 C 37.402344 13.746094 37.820312 13.867188 38.160156 13.964844 C 38.988281 14.207031 39.332031 13.988281 40.429688 14.265625 C 41.023438 14.417969 41.046875 14.511719 41.046875 14.546875 C 41.046875 14.726562 40.269531 14.851562 40.140625 14.875 C 38.820312 15.089844 38.539062 14.621094 37.53125 14.875 C 37.0625 14.988281 36.789062 15.171875 36.480469 15.011719 C 36.242188 14.890625 36.175781 14.660156 36.039062 14.359375 C 35.6875 13.597656 35.195312 12.9375 34.570312 12.375 C 34.003906 11.886719 33.722656 11.914062 33.65625 11.597656 C 33.539062 11 34.40625 10.160156 34.773438 10.292969 Z M 34.773438 10.292969 " fill-opacity="1" fill-rule="nonzero"/><g mask="url(#9b5b7d2edc)"><g transform="matrix(1, 0, 0, 1, 34, 10)"><g clip-path="url(#6bb6cd90fd)"><g clip-path="url(#64566e95af)"><path fill="#21120a" d="M 3.085938 4.871094 C 2.867188 4.925781 2.691406 4.996094 2.535156 5.035156 C 2.820312 5.148438 3.089844 4.980469 3.53125 4.871094 C 3.652344 4.84375 3.773438 4.820312 3.898438 4.808594 C 3.625 4.78125 3.355469 4.804688 3.085938 4.871094 Z M 3.085938 4.871094 " fill-opacity="1" fill-rule="nonzero"/></g><g clip-path="url(#657ae864c3)"><path fill="#21120a" d="M 6.433594 4.265625 C 5.332031 3.984375 4.988281 4.203125 4.160156 3.964844 C 3.820312 3.863281 3.402344 3.742188 3.003906 3.398438 C 2.636719 3.078125 2.582031 2.828125 2.085938 2.5 C 1.867188 2.355469 1.765625 2.328125 1.5625 2.148438 C 1.324219 1.941406 1.121094 1.765625 1.039062 1.488281 C 0.917969 1.089844 1.148438 0.84375 0.945312 0.484375 C 0.894531 0.394531 0.855469 0.324219 0.773438 0.292969 C 0.679688 0.257812 0.554688 0.289062 0.421875 0.359375 C 0.507812 0.375 0.585938 0.410156 0.652344 0.460938 C 0.847656 0.613281 0.871094 0.863281 0.875 0.925781 C 0.914062 1.40625 0.507812 1.644531 0.628906 1.851562 C 0.691406 1.957031 0.808594 1.910156 1.117188 2.148438 C 1.179688 2.199219 1.1875 2.207031 1.265625 2.265625 C 1.386719 2.351562 1.511719 2.429688 1.644531 2.496094 C 1.878906 2.617188 1.96875 2.613281 2.074219 2.667969 C 2.554688 2.914062 2.34375 3.878906 2.679688 3.984375 C 2.859375 4.039062 2.972656 3.796875 3.324219 3.820312 C 3.464844 3.835938 3.597656 3.882812 3.71875 3.960938 C 4.351562 4.320312 4.945312 3.914062 5.992188 4.265625 C 6.0625 4.289062 6.589844 4.464844 6.570312 4.609375 C 6.554688 4.742188 6.109375 4.808594 5.699219 4.871094 C 5.507812 4.898438 5.347656 4.914062 5.246094 4.921875 C 5.546875 4.9375 5.84375 4.921875 6.144531 4.871094 C 6.273438 4.851562 7.050781 4.71875 7.050781 4.542969 C 7.050781 4.511719 7.023438 4.417969 6.433594 4.265625 Z M 6.433594 4.265625 " fill-opacity="1" fill-rule="nonzero"/></g></g></g></g><path fill="#d68c45" d="M 41.617188 14.886719 C 41.554688 15.023438 41.476562 15.144531 41.378906 15.257812 L 41.367188 15.273438 C 41.335938 15.308594 41.300781 15.347656 41.261719 15.382812 C 41.21875 15.421875 41.175781 15.457031 41.132812 15.492188 C 40.996094 15.597656 40.851562 15.6875 40.695312 15.757812 C 39.617188 16.277344 37.894531 16.261719 36.632812 15.367188 C 36.601562 15.34375 36.570312 15.320312 36.542969 15.296875 C 36.925781 15.316406 37.242188 15.023438 37.976562 15.128906 C 38.71875 15.238281 38.777344 15.59375 39.328125 15.550781 C 39.8125 15.511719 39.992188 15.210938 40.3125 14.992188 C 40.335938 14.976562 40.359375 14.960938 40.382812 14.945312 C 40.488281 14.878906 40.605469 14.832031 40.726562 14.800781 C 40.894531 14.761719 41.066406 14.753906 41.238281 14.78125 C 41.371094 14.800781 41.496094 14.835938 41.617188 14.886719 Z M 41.617188 14.886719 " fill-opacity="1" fill-rule="nonzero"/><path fill="#f2d3bd" d="M 41.277344 15.566406 C 41.246094 15.585938 41.199219 15.550781 41.132812 15.492188 C 41.066406 15.433594 40.980469 15.347656 40.878906 15.269531 C 40.738281 15.160156 40.585938 15.078125 40.417969 15.023438 C 40.382812 15.011719 40.347656 15 40.3125 14.992188 C 40.332031 14.976562 40.359375 14.960938 40.382812 14.945312 C 40.488281 14.878906 40.605469 14.832031 40.726562 14.800781 C 40.894531 14.761719 41.066406 14.753906 41.238281 14.78125 C 41.234375 14.800781 41.226562 14.820312 41.222656 14.839844 C 41.183594 15.023438 41.199219 15.207031 41.261719 15.382812 C 41.292969 15.480469 41.3125 15.546875 41.277344 15.566406 Z M 41.277344 15.566406 " fill-opacity="1" fill-rule="nonzero"/><g clip-path="url(#af670d568e)"><path fill="#d68c45" d="M 42.886719 19.476562 L 42.886719 19.457031 C 42.878906 18.828125 42.820312 18.207031 42.707031 17.589844 C 42.550781 16.753906 42.300781 15.949219 41.957031 15.175781 C 41.929688 15.113281 41.898438 15.050781 41.871094 14.984375 L 41.859375 14.980469 C 41.78125 14.941406 41.703125 14.902344 41.621094 14.867188 C 41.5625 14.84375 41.503906 14.824219 41.445312 14.804688 L 41.433594 14.804688 C 41.378906 14.785156 41.320312 14.773438 41.265625 14.765625 C 41.253906 14.765625 41.246094 14.761719 41.238281 14.761719 C 41.066406 14.734375 40.894531 14.742188 40.726562 14.785156 C 40.601562 14.8125 40.488281 14.859375 40.378906 14.925781 C 40.355469 14.941406 40.328125 14.957031 40.308594 14.972656 C 39.988281 15.191406 39.808594 15.488281 39.324219 15.527344 C 38.777344 15.574219 38.714844 15.214844 37.972656 15.109375 C 37.238281 15.003906 36.921875 15.296875 36.539062 15.277344 C 36.4375 15.273438 36.339844 15.246094 36.246094 15.203125 C 35.910156 15.042969 35.710938 14.675781 35.3125 13.941406 C 34.972656 13.308594 35.054688 13.25 34.847656 13.007812 C 34.75 12.890625 34.632812 12.796875 34.496094 12.730469 L 34.492188 12.730469 C 34.402344 12.683594 34.304688 12.648438 34.207031 12.625 L 34.199219 12.625 C 34.171875 12.617188 34.140625 12.609375 34.109375 12.601562 L 34.089844 12.597656 C 33.867188 12.554688 33.648438 12.539062 33.46875 12.464844 L 33.457031 12.460938 C 33.332031 12.414062 33.238281 12.332031 33.171875 12.21875 C 33.097656 12.085938 33.0625 11.941406 33.0625 11.792969 C 33.0625 11.617188 33.097656 11.449219 33.167969 11.289062 C 33.222656 11.160156 33.300781 11.046875 33.402344 10.953125 C 33.546875 10.828125 33.636719 10.859375 33.777344 10.765625 C 34.039062 10.597656 34.078125 10.273438 34.082031 9.929688 C 34.082031 9.886719 34.082031 9.839844 34.082031 9.792969 L 34.082031 9.773438 C 34.078125 9.472656 34.070312 9.175781 34.179688 8.96875 L 34.183594 8.960938 L 34.195312 8.945312 C 33.484375 8.800781 32.769531 8.730469 32.046875 8.730469 C 31.609375 8.730469 31.171875 8.753906 30.738281 8.808594 C 29.257812 8.984375 27.875 9.449219 26.589844 10.203125 C 26.089844 10.496094 25.617188 10.824219 25.171875 11.1875 C 24.726562 11.554688 24.3125 11.953125 23.929688 12.386719 C 23.546875 12.820312 23.199219 13.28125 22.890625 13.769531 C 22.582031 14.257812 22.3125 14.765625 22.085938 15.296875 C 21.855469 15.828125 21.671875 16.375 21.53125 16.933594 C 21.390625 17.496094 21.292969 18.0625 21.242188 18.640625 C 21.195312 19.214844 21.191406 19.792969 21.230469 20.367188 C 21.273438 20.945312 21.359375 21.511719 21.492188 22.078125 C 21.625 22.640625 21.800781 23.1875 22.023438 23.722656 C 22.242188 24.257812 22.503906 24.769531 22.804688 25.261719 C 23.105469 25.753906 23.445312 26.21875 23.824219 26.65625 C 24.199219 27.097656 24.609375 27.503906 25.046875 27.875 C 25.488281 28.246094 25.957031 28.582031 26.453125 28.882812 C 26.945312 29.179688 27.460938 29.4375 27.996094 29.652344 C 28.53125 29.867188 29.082031 30.039062 29.644531 30.167969 C 30.207031 30.292969 30.777344 30.375 31.351562 30.414062 C 31.527344 30.425781 31.699219 30.429688 31.875 30.433594 C 31.917969 30.433594 31.960938 30.433594 32.007812 30.433594 L 32.046875 30.433594 C 34.164062 30.4375 36.109375 29.867188 37.890625 28.726562 C 37.925781 28.703125 37.964844 28.679688 38 28.652344 C 38.027344 28.636719 38.050781 28.617188 38.078125 28.601562 C 38.785156 28.128906 39.425781 27.582031 40 26.957031 C 40.578125 26.335938 41.074219 25.652344 41.492188 24.914062 C 41.90625 24.171875 42.230469 23.394531 42.464844 22.578125 C 42.699219 21.761719 42.835938 20.929688 42.875 20.082031 C 42.878906 20.03125 42.878906 19.980469 42.878906 19.929688 C 42.878906 19.90625 42.878906 19.878906 42.878906 19.855469 C 42.878906 19.808594 42.878906 19.761719 42.882812 19.714844 C 42.886719 19.667969 42.882812 19.613281 42.882812 19.558594 C 42.886719 19.535156 42.886719 19.503906 42.886719 19.476562 Z M 33.101562 21.945312 C 32.765625 22.09375 32.414062 22.171875 32.046875 22.167969 C 31.859375 22.167969 31.675781 22.148438 31.492188 22.109375 C 31.308594 22.066406 31.132812 22.007812 30.964844 21.929688 C 30.792969 21.847656 30.632812 21.753906 30.484375 21.640625 C 30.335938 21.527344 30.203125 21.398438 30.078125 21.253906 C 29.957031 21.109375 29.855469 20.957031 29.765625 20.789062 C 29.679688 20.625 29.609375 20.453125 29.558594 20.269531 C 29.511719 20.089844 29.480469 19.90625 29.46875 19.71875 C 29.460938 19.53125 29.46875 19.34375 29.5 19.160156 C 29.5 19.160156 29.5 19.15625 29.5 19.15625 C 29.550781 18.867188 29.644531 18.59375 29.785156 18.335938 C 29.925781 18.078125 30.109375 17.851562 30.328125 17.65625 C 30.546875 17.457031 30.789062 17.304688 31.0625 17.191406 C 31.332031 17.082031 31.617188 17.015625 31.910156 17 C 31.945312 17 31.980469 16.996094 32.015625 16.996094 L 32.046875 16.996094 C 32.265625 16.996094 32.480469 17.023438 32.691406 17.078125 C 32.765625 17.097656 32.839844 17.121094 32.914062 17.144531 C 32.96875 17.164062 33.023438 17.1875 33.074219 17.210938 C 33.835938 17.539062 34.324219 18.105469 34.542969 18.910156 C 34.570312 19.011719 34.589844 19.117188 34.605469 19.226562 C 34.660156 19.617188 34.625 20 34.503906 20.375 C 34.269531 21.105469 33.804688 21.628906 33.101562 21.945312 Z M 33.101562 21.945312 " fill-opacity="1" fill-rule="nonzero"/></g><g clip-path="url(#32c8da851a)"><g mask="url(#a39acdff7d)"><g transform="matrix(1, 0, 0, 1, 25, 8)"><g clip-path="url(#a59a2ae14d)"><path fill="#21120a" d="M 9.523438 5.484375 C 9.917969 6.21875 10.117188 6.585938 10.457031 6.746094 C 10.546875 6.792969 10.644531 6.816406 10.746094 6.824219 C 10.753906 6.824219 10.765625 6.824219 10.773438 6.824219 C 10.617188 6.613281 10.460938 6.324219 10.242188 5.921875 C 9.898438 5.289062 9.984375 5.226562 9.777344 4.988281 C 9.59375 4.777344 9.363281 4.644531 9.089844 4.589844 C 9.257812 4.800781 9.199219 4.886719 9.523438 5.484375 Z M 9.523438 5.484375 " fill-opacity="1" fill-rule="nonzero"/><path fill="#21120a" d="M 7.929688 9.160156 C 7.851562 9.128906 7.773438 9.101562 7.691406 9.078125 C 7.457031 9.011719 7.21875 8.976562 6.976562 8.976562 L 6.941406 8.976562 L 6.910156 9 C 6.617188 9.015625 6.332031 9.082031 6.0625 9.191406 C 5.789062 9.304688 5.546875 9.460938 5.328125 9.65625 C 5.109375 9.851562 4.925781 10.078125 4.785156 10.335938 C 4.644531 10.59375 4.550781 10.867188 4.5 11.15625 C 4.5 11.15625 4.5 11.160156 4.5 11.160156 C 4.429688 11.582031 4.464844 12 4.601562 12.40625 C 4.738281 12.8125 4.960938 13.164062 5.269531 13.457031 L 5.300781 13.53125 C 5.027344 13.421875 4.777344 13.269531 4.554688 13.074219 C 4.335938 12.882812 4.152344 12.65625 4.007812 12.398438 C 3.863281 12.140625 3.761719 11.867188 3.710938 11.578125 C 3.660156 11.285156 3.660156 10.996094 3.707031 10.703125 C 3.707031 10.703125 3.707031 10.703125 3.707031 10.699219 C 3.753906 10.421875 3.84375 10.15625 3.980469 9.902344 C 4.113281 9.652344 4.285156 9.429688 4.492188 9.238281 C 4.699219 9.042969 4.933594 8.886719 5.191406 8.769531 C 5.453125 8.652344 5.722656 8.582031 6.003906 8.554688 L 6.015625 8.554688 C 6.082031 8.546875 6.152344 8.542969 6.21875 8.542969 L 6.253906 8.542969 C 6.878906 8.542969 7.429688 8.742188 7.910156 9.144531 Z M 7.929688 9.160156 " fill-opacity="1" fill-rule="nonzero"/><g clip-path="url(#a9d6a6d9ec)"><path fill="#21120a" d="M 10.566406 2.632812 C 10.527344 2.945312 10.324219 3.160156 10.292969 3.390625 C 10.261719 3.621094 10.21875 3.667969 10.191406 3.667969 C 10.132812 3.667969 10.027344 3.394531 10.066406 3.121094 C 10.09375 2.914062 10.175781 2.863281 10.164062 2.722656 C 10.148438 2.542969 9.988281 2.410156 9.84375 2.320312 C 9.828125 2.3125 9.804688 2.308594 9.78125 2.300781 C 9.75 2.289062 9.714844 2.285156 9.683594 2.28125 C 9.636719 2.277344 9.59375 2.28125 9.546875 2.289062 C 9.460938 2.3125 9.386719 2.359375 9.320312 2.421875 C 9.179688 2.542969 9.046875 2.671875 8.921875 2.808594 L 8.910156 2.820312 C 8.582031 3.257812 8.417969 3.472656 8.386719 3.582031 C 8.28125 3.894531 8.363281 4.222656 8.472656 4.480469 C 8.589844 4.761719 8.738281 4.964844 8.710938 4.980469 C 8.683594 4.996094 8.5625 4.863281 8.050781 4.097656 C 7.9375 4.082031 7.828125 4.054688 7.71875 4.023438 C 7.570312 3.976562 7.457031 3.890625 7.378906 3.757812 C 7.164062 3.394531 7.289062 2.8125 7.578125 2.527344 C 6.429688 3.09375 3.226562 4.542969 3.042969 4.234375 C 2.921875 4.027344 4.210938 3.167969 4.976562 2.460938 C 5.34375 2.125 5.59375 1.824219 5.507812 1.644531 C 5.332031 1.257812 3.675781 1.609375 1.589844 2.226562 C 2.875 1.472656 4.257812 1.007812 5.738281 0.828125 C 6.898438 0.6875 8.050781 0.734375 9.199219 0.964844 L 9.199219 0.96875 C 9.792969 0.90625 10.652344 1.894531 10.566406 2.632812 Z M 10.566406 2.632812 " fill-opacity="1" fill-rule="nonzero"/></g><g clip-path="url(#e8996aa70f)"><path fill="#21120a" d="M 17.886719 11.5625 C 17.886719 11.621094 17.886719 11.679688 17.886719 11.738281 C 17.875 12.617188 17.757812 13.476562 17.535156 14.328125 C 17.3125 15.175781 16.988281 15.984375 16.570312 16.753906 C 16.152344 17.523438 15.648438 18.234375 15.058594 18.882812 C 14.46875 19.527344 13.808594 20.097656 13.082031 20.582031 C 13.054688 20.601562 13.027344 20.621094 13 20.636719 C 12.964844 20.660156 12.929688 20.683594 12.890625 20.707031 C 11.113281 21.851562 9.164062 22.421875 7.050781 22.417969 L 7.007812 22.417969 C 6.964844 22.417969 6.917969 22.417969 6.875 22.417969 C 6.699219 22.414062 6.527344 22.40625 6.355469 22.394531 C 4.449219 22.273438 2.699219 21.6875 1.101562 20.636719 C 2.515625 21.417969 4.023438 21.859375 5.632812 21.960938 C 5.808594 21.972656 5.980469 21.976562 6.15625 21.980469 C 6.199219 21.980469 6.242188 21.980469 6.285156 21.980469 L 6.332031 21.980469 C 8.445312 21.984375 10.390625 21.414062 12.171875 20.273438 C 12.207031 20.246094 12.246094 20.222656 12.28125 20.199219 C 12.308594 20.183594 12.335938 20.164062 12.359375 20.148438 C 13.101562 19.652344 13.769531 19.074219 14.367188 18.414062 C 14.964844 17.753906 15.472656 17.03125 15.894531 16.242188 C 16.3125 15.457031 16.628906 14.628906 16.84375 13.765625 C 17.0625 12.898438 17.167969 12.023438 17.167969 11.128906 C 17.167969 10.460938 17.105469 9.792969 16.984375 9.136719 C 16.941406 8.867188 16.898438 8.621094 16.855469 8.394531 C 16.757812 7.828125 16.660156 7.386719 16.539062 7.046875 C 16.507812 6.96875 16.480469 6.894531 16.449219 6.828125 C 16.328125 6.570312 16.179688 6.390625 15.980469 6.265625 C 15.550781 6.003906 15.273438 6.1875 13.269531 5.886719 C 13.042969 5.851562 12.8125 5.816406 12.554688 5.667969 C 12.296875 5.523438 12.066406 5.265625 11.625 4.765625 C 11.449219 4.570312 11.402344 4.503906 11.265625 4.375 C 10.894531 4.023438 10.695312 3.972656 10.703125 3.917969 C 10.804688 3.964844 10.925781 4.019531 11.0625 4.09375 C 11.800781 4.511719 11.765625 4.941406 12.367188 5.371094 C 12.789062 5.671875 13.199219 5.722656 14.015625 5.835938 C 15.359375 6.023438 15.839844 5.714844 16.332031 6.148438 C 16.605469 6.390625 16.773438 6.773438 16.847656 6.953125 C 16.855469 6.972656 16.863281 6.988281 16.867188 7.003906 C 16.898438 7.066406 16.929688 7.128906 16.957031 7.195312 C 17.300781 7.96875 17.550781 8.773438 17.703125 9.605469 C 17.820312 10.222656 17.878906 10.847656 17.886719 11.476562 C 17.886719 11.503906 17.886719 11.535156 17.886719 11.5625 Z M 17.886719 11.5625 " fill-opacity="1" fill-rule="nonzero"/></g></g></g></g></g><g clip-path="url(#2af0a56768)"><path fill="#ff9f1c" d="M 42.09375 18.09375 C 42.089844 18.035156 42.078125 17.976562 42.058594 17.917969 C 42.054688 17.898438 42.046875 17.878906 42.042969 17.863281 C 42.003906 17.765625 41.953125 17.671875 41.886719 17.589844 C 41.886719 17.589844 41.882812 17.589844 41.882812 17.585938 C 41.789062 17.46875 41.671875 17.363281 41.542969 17.226562 C 41.527344 17.210938 41.507812 17.191406 41.488281 17.171875 C 41.460938 17.140625 41.429688 17.105469 41.394531 17.066406 C 41.363281 17.027344 41.332031 16.992188 41.300781 16.953125 C 41.183594 16.804688 41.082031 16.648438 40.992188 16.480469 C 40.976562 16.453125 40.960938 16.421875 40.949219 16.394531 C 40.90625 16.3125 40.871094 16.234375 40.839844 16.164062 C 40.796875 16.0625 40.765625 15.96875 40.742188 15.894531 C 40.726562 15.84375 40.710938 15.796875 40.699219 15.761719 L 40.699219 15.757812 C 40.617188 15.511719 40.527344 15.28125 40.429688 15.0625 C 40.429688 15.058594 40.429688 15.058594 40.429688 15.058594 C 40.421875 15.046875 40.417969 15.039062 40.414062 15.027344 C 40.402344 15 40.390625 14.976562 40.378906 14.949219 C 40.351562 14.960938 40.332031 14.976562 40.308594 14.992188 C 39.988281 15.210938 39.808594 15.511719 39.324219 15.550781 C 38.777344 15.59375 38.714844 15.238281 37.972656 15.128906 C 37.238281 15.023438 36.921875 15.316406 36.539062 15.300781 C 36.4375 15.292969 36.339844 15.269531 36.246094 15.222656 C 35.914062 15.0625 35.710938 14.695312 35.316406 13.960938 C 34.972656 13.328125 35.054688 13.269531 34.851562 13.027344 C 34.75 12.914062 34.632812 12.820312 34.5 12.75 L 34.492188 12.75 C 34.371094 12.691406 34.242188 12.648438 34.109375 12.621094 C 33.878906 12.574219 33.652344 12.558594 33.46875 12.488281 C 33.339844 12.4375 33.238281 12.355469 33.171875 12.238281 C 33.09375 12.097656 33.058594 11.949219 33.0625 11.792969 C 33.066406 11.617188 33.101562 11.449219 33.175781 11.292969 C 33.230469 11.167969 33.304688 11.0625 33.402344 10.972656 C 33.546875 10.847656 33.636719 10.878906 33.777344 10.789062 C 34.042969 10.613281 34.078125 10.28125 34.082031 9.933594 C 34.082031 9.886719 34.082031 9.839844 34.082031 9.796875 C 34.035156 9.757812 33.992188 9.726562 33.945312 9.695312 C 33.816406 9.597656 33.679688 9.515625 33.539062 9.445312 C 33.175781 9.265625 32.875 9.234375 32.628906 9.265625 C 32.035156 9.339844 31.863281 9.769531 30.902344 10.199219 C 30.480469 10.390625 30.210938 10.441406 29.976562 10.464844 C 29.648438 10.496094 29.382812 10.472656 28.859375 10.683594 C 27.765625 11.125 27.554688 11.785156 26.792969 12.351562 C 26.539062 12.539062 26.265625 12.691406 25.976562 12.804688 C 25.199219 13.125 25.015625 12.957031 24.582031 13.246094 C 24.558594 13.261719 24.53125 13.277344 24.507812 13.296875 C 23.863281 13.761719 23.644531 14.476562 23.316406 15.886719 C 23.085938 16.890625 22.824219 18.144531 22.585938 19.605469 C 22.003906 20.183594 21.828125 21 22.128906 21.628906 C 22.257812 21.890625 22.449219 22.097656 22.699219 22.253906 L 22.71875 22.265625 C 22.742188 22.277344 22.765625 22.292969 22.785156 22.304688 C 22.792969 22.308594 22.800781 22.3125 22.804688 22.316406 C 22.871094 22.351562 22.941406 22.382812 23.011719 22.410156 C 23.289062 23.710938 24.121094 26.78125 26.328125 27.789062 C 27.226562 28.199219 29.179688 28.644531 29.320312 28.679688 C 30.191406 28.875 30.925781 28.988281 31.441406 29.058594 C 31.492188 29.109375 31.546875 29.160156 31.609375 29.210938 C 31.878906 29.441406 32.238281 29.671875 32.660156 29.734375 L 32.714844 29.738281 L 32.769531 29.746094 C 32.792969 29.746094 32.8125 29.75 32.835938 29.75 C 32.855469 29.75 32.882812 29.75 32.90625 29.75 C 32.929688 29.75 32.945312 29.75 32.964844 29.746094 C 32.984375 29.742188 33.003906 29.742188 33.023438 29.742188 L 33.078125 29.734375 C 33.097656 29.730469 33.113281 29.726562 33.128906 29.722656 C 33.625 29.613281 33.75 29.152344 34.917969 28.632812 C 34.917969 28.632812 36.847656 27.773438 37.148438 27.582031 C 37.179688 27.5625 37.210938 27.542969 37.242188 27.519531 L 37.3125 27.476562 C 37.773438 27.160156 39.851562 26.230469 40.101562 24.988281 C 40.148438 24.757812 40.125 24.539062 40.039062 24.324219 C 40.015625 24.257812 39.988281 24.191406 39.96875 24.128906 C 39.894531 23.925781 39.851562 23.726562 39.960938 23.445312 C 39.980469 23.402344 40 23.359375 40.023438 23.320312 C 40.035156 23.296875 40.050781 23.273438 40.066406 23.25 L 40.082031 23.230469 C 40.234375 23.023438 40.445312 22.945312 40.675781 22.796875 C 40.820312 22.699219 40.949219 22.582031 41.0625 22.449219 C 41.070312 22.441406 41.074219 22.433594 41.082031 22.425781 C 41.234375 22.242188 41.324219 22.03125 41.351562 21.796875 C 41.382812 21.542969 41.351562 21.28125 41.34375 20.957031 C 41.34375 20.902344 41.339844 20.847656 41.339844 20.789062 C 41.339844 20.386719 41.394531 19.992188 41.507812 19.605469 C 41.523438 19.554688 41.539062 19.503906 41.554688 19.453125 C 41.609375 19.277344 41.679688 19.109375 41.757812 18.941406 C 41.859375 18.722656 41.957031 18.566406 42.019531 18.425781 C 42.0625 18.335938 42.085938 18.242188 42.09375 18.144531 C 42.09375 18.125 42.09375 18.109375 42.09375 18.09375 Z M 32.082031 22.789062 C 31.699219 22.789062 31.25 22.71875 30.828125 22.488281 C 30.753906 22.445312 30.683594 22.382812 30.535156 22.296875 C 30.355469 22.195312 30.167969 22.113281 29.96875 22.054688 C 29.789062 21.933594 29.632812 21.777344 29.511719 21.597656 C 29.332031 21.332031 29.234375 21.035156 29.214844 20.714844 C 29.207031 20.652344 29.203125 20.582031 29.191406 20.511719 C 29.191406 20.484375 29.1875 20.460938 29.183594 20.4375 C 29.058594 19.367188 28.9375 19.476562 28.964844 19.066406 C 28.972656 18.910156 28.996094 18.757812 29.035156 18.605469 C 29.238281 17.8125 29.796875 17.277344 29.882812 17.195312 C 30.207031 16.894531 30.582031 16.683594 31.003906 16.558594 C 31.214844 16.492188 31.429688 16.453125 31.648438 16.433594 C 31.710938 16.425781 31.773438 16.421875 31.832031 16.417969 C 31.910156 16.417969 31.984375 16.414062 32.054688 16.417969 L 32.089844 16.417969 L 32.179688 16.421875 C 32.195312 16.421875 32.207031 16.421875 32.222656 16.421875 L 32.28125 16.421875 L 32.3125 16.425781 L 32.316406 16.425781 C 32.375 16.433594 32.425781 16.4375 32.464844 16.445312 L 32.480469 16.445312 C 33.3125 16.558594 34.085938 17 34.578125 17.488281 C 34.828125 17.734375 35.003906 17.996094 35.082031 18.230469 C 35.085938 18.242188 35.085938 18.25 35.089844 18.261719 C 35.125 18.363281 35.132812 18.46875 35.117188 18.574219 C 35.089844 18.746094 34.957031 19.027344 35.0625 19.382812 C 35.082031 19.453125 35.109375 19.519531 35.148438 19.582031 C 35.210938 19.691406 35.277344 19.757812 35.320312 19.832031 C 35.636719 20.421875 34.613281 22.242188 32.957031 22.679688 C 32.671875 22.753906 32.378906 22.792969 32.082031 22.789062 Z M 32.082031 22.789062 " fill-opacity="1" fill-rule="nonzero"/><g mask="url(#037511e067)"><g transform="matrix(1, 0, 0, 1, 21, 9)"><g clip-path="url(#cf86d9f20a)"><path fill="#21120a" d="M 14.332031 9.90625 C 14.292969 9.828125 14.222656 9.761719 14.160156 9.652344 C 14.148438 9.632812 14.136719 9.609375 14.128906 9.589844 C 14.097656 9.761719 13.972656 10.035156 14.078125 10.386719 C 14.097656 10.457031 14.125 10.519531 14.160156 10.582031 C 14.191406 10.636719 14.222656 10.683594 14.261719 10.730469 C 14.398438 10.390625 14.429688 10.089844 14.332031 9.90625 Z M 14.332031 9.90625 " fill-opacity="1" fill-rule="nonzero"/><path fill="#21120a" d="M 14.101562 8.332031 C 14.101562 8.320312 14.097656 8.3125 14.09375 8.300781 C 14.015625 8.066406 13.835938 7.804688 13.589844 7.558594 C 13.097656 7.070312 12.324219 6.628906 11.492188 6.511719 L 11.480469 6.511719 C 11.441406 6.507812 11.390625 6.503906 11.328125 6.496094 C 11.328125 6.496094 11.328125 6.496094 11.324219 6.496094 L 11.292969 6.492188 L 11.234375 6.492188 C 11.21875 6.492188 11.207031 6.492188 11.191406 6.492188 L 11.101562 6.488281 L 11.058594 6.488281 C 10.925781 6.484375 10.792969 6.488281 10.660156 6.503906 C 10.441406 6.523438 10.226562 6.5625 10.015625 6.628906 C 9.59375 6.753906 9.21875 6.964844 8.894531 7.265625 C 8.789062 7.367188 8.035156 8.089844 7.972656 9.136719 C 7.960938 9.363281 7.992188 9.429688 8.042969 9.625 C 8.242188 8.824219 8.804688 8.285156 8.894531 8.199219 C 9.21875 7.898438 9.59375 7.6875 10.015625 7.5625 C 10.226562 7.496094 10.441406 7.457031 10.660156 7.4375 C 10.792969 7.421875 10.925781 7.417969 11.058594 7.421875 L 11.105469 7.421875 L 11.191406 7.425781 C 11.207031 7.425781 11.21875 7.425781 11.234375 7.425781 L 11.292969 7.425781 L 11.324219 7.429688 L 11.328125 7.429688 C 11.390625 7.4375 11.441406 7.441406 11.480469 7.449219 L 11.492188 7.449219 C 12.324219 7.566406 13.097656 8.003906 13.589844 8.492188 C 13.777344 8.667969 13.925781 8.871094 14.042969 9.101562 C 14.054688 8.910156 14.117188 8.753906 14.132812 8.644531 C 14.148438 8.539062 14.136719 8.433594 14.101562 8.332031 Z M 14.101562 8.332031 " fill-opacity="1" fill-rule="nonzero"/><g clip-path="url(#44e54c71e0)"><path fill="#21120a" d="M 12.785156 0.855469 C 12.644531 0.945312 12.558594 0.914062 12.414062 1.039062 C 12.097656 1.3125 11.957031 1.925781 12.179688 2.300781 C 12.234375 2.175781 12.3125 2.066406 12.414062 1.972656 C 12.558594 1.847656 12.644531 1.878906 12.785156 1.789062 C 13.085938 1.589844 13.09375 1.191406 13.089844 0.792969 C 13.042969 0.753906 12.996094 0.71875 12.953125 0.6875 C 12.910156 0.753906 12.851562 0.808594 12.785156 0.855469 Z M 12.785156 0.855469 " fill-opacity="1" fill-rule="nonzero"/></g><g clip-path="url(#6b857442ae)"><path fill="#21120a" d="M 21.050781 8.863281 C 21.039062 8.835938 21.023438 8.800781 21.003906 8.757812 C 20.957031 8.679688 20.910156 8.605469 20.855469 8.535156 C 20.722656 8.359375 20.570312 8.203125 20.394531 8.066406 C 20.179688 7.882812 20.066406 7.644531 19.839844 7.160156 C 19.496094 6.421875 19.425781 5.933594 19.382812 5.945312 C 19.328125 5.953125 19.578125 6.703125 19.6875 7.902344 C 19.722656 8.285156 19.730469 8.582031 19.957031 8.796875 C 20.203125 9.023438 20.535156 9.617188 20.519531 9.667969 C 20.402344 10.054688 20.347656 10.453125 20.347656 10.855469 C 20.347656 11.046875 20.359375 11.21875 20.367188 11.378906 C 20.394531 11.117188 20.445312 10.855469 20.519531 10.601562 C 20.535156 10.550781 20.546875 10.5 20.5625 10.453125 C 20.621094 10.277344 20.6875 10.105469 20.765625 9.941406 C 20.871094 9.722656 20.96875 9.566406 21.027344 9.425781 C 21.074219 9.335938 21.097656 9.242188 21.101562 9.140625 Z M 21.050781 8.863281 " fill-opacity="1" fill-rule="nonzero"/></g><path fill="#21120a" d="M 20.089844 12.492188 C 20.085938 12.5 20.078125 12.507812 20.070312 12.515625 C 19.960938 12.652344 19.832031 12.769531 19.683594 12.863281 C 19.453125 13.015625 19.246094 13.09375 19.089844 13.300781 L 19.078125 13.320312 C 19.035156 13.382812 19 13.445312 18.972656 13.515625 C 18.859375 13.796875 18.90625 14 18.976562 14.199219 C 18.992188 14.242188 19.011719 14.289062 19.027344 14.332031 C 19.042969 14.304688 19.058594 14.277344 19.078125 14.253906 L 19.09375 14.234375 C 19.246094 14.027344 19.457031 13.949219 19.6875 13.796875 C 19.832031 13.703125 19.960938 13.585938 20.070312 13.453125 C 20.078125 13.445312 20.085938 13.4375 20.089844 13.425781 C 20.242188 13.242188 20.332031 13.03125 20.359375 12.796875 C 20.390625 12.535156 20.359375 12.257812 20.347656 11.917969 C 20.316406 12.132812 20.226562 12.324219 20.089844 12.492188 Z M 20.089844 12.492188 " fill-opacity="1" fill-rule="nonzero"/><g clip-path="url(#03abcfd5d1)"><path fill="#21120a" d="M 18.015625 16.664062 C 17.691406 17.179688 17.527344 17.4375 17.238281 17.570312 C 16.292969 17.988281 15.175781 16.910156 14.75 17.320312 C 14.53125 17.53125 14.785156 17.859375 14.472656 18.441406 C 14.332031 18.699219 14.160156 18.859375 13.941406 19.0625 C 13.539062 19.441406 13.332031 19.636719 13.011719 19.6875 C 12.867188 19.707031 12.199219 19.78125 12.140625 19.792969 C 12.136719 19.792969 12.113281 19.800781 12.089844 19.804688 C 12.070312 19.808594 12.050781 19.808594 12.03125 19.8125 L 11.972656 19.816406 L 11.914062 19.816406 C 11.871094 19.820312 11.824219 19.816406 11.78125 19.8125 L 11.722656 19.808594 L 11.667969 19.800781 C 11.3125 19.75 10.917969 19.503906 10.917969 19.503906 C 10.746094 19.394531 10.589844 19.269531 10.449219 19.125 L 10.183594 18.71875 C 9.566406 18.796875 8.949219 18.804688 8.328125 18.746094 C 7.386719 18.652344 6.351562 18.558594 5.335938 17.859375 C 5.101562 17.695312 3.394531 16.480469 3.378906 14.796875 C 3.371094 13.871094 3.875 13.25 3.535156 12.929688 C 3.191406 12.613281 1.828125 12.390625 1.816406 12.382812 L 1.8125 12.382812 L 1.796875 12.375 C 1.773438 12.363281 1.75 12.347656 1.726562 12.332031 C 1.71875 12.328125 1.714844 12.324219 1.707031 12.320312 C 1.457031 12.167969 1.269531 11.957031 1.140625 11.695312 C 1.109375 11.628906 1.082031 11.566406 1.0625 11.496094 C 0.945312 11.882812 0.96875 12.261719 1.136719 12.628906 C 1.269531 12.890625 1.457031 13.097656 1.707031 13.253906 L 1.726562 13.265625 C 1.75 13.277344 1.773438 13.292969 1.792969 13.304688 C 1.800781 13.308594 1.808594 13.3125 1.8125 13.316406 C 1.878906 13.351562 1.949219 13.382812 2.019531 13.410156 C 2.296875 14.710938 3.125 17.78125 5.335938 18.789062 C 6.234375 19.199219 8.1875 19.644531 8.328125 19.675781 C 9.199219 19.875 9.933594 19.988281 10.449219 20.058594 C 10.5 20.109375 10.554688 20.15625 10.617188 20.207031 C 10.890625 20.441406 11.246094 20.671875 11.667969 20.730469 L 11.722656 20.738281 L 11.777344 20.742188 C 11.820312 20.746094 11.867188 20.75 11.914062 20.75 C 11.933594 20.75 11.953125 20.75 11.972656 20.746094 C 11.992188 20.742188 12.011719 20.742188 12.03125 20.742188 L 12.085938 20.734375 C 12.105469 20.730469 12.121094 20.726562 12.136719 20.722656 C 12.628906 20.613281 12.757812 20.152344 13.921875 19.632812 C 13.921875 19.632812 15.851562 18.773438 16.152344 18.582031 C 16.183594 18.5625 16.21875 18.542969 16.25 18.519531 C 16.28125 18.5 16.3125 18.476562 16.316406 18.472656 C 16.777344 18.160156 18.855469 17.230469 19.109375 15.988281 C 19.125 15.894531 19.132812 15.800781 19.128906 15.707031 C 19.113281 15.3125 18.90625 15.179688 18.851562 14.855469 C 18.820312 14.621094 18.863281 14.402344 18.976562 14.195312 C 18.804688 15.078125 18.484375 15.902344 18.015625 16.664062 Z M 18.015625 16.664062 " fill-opacity="1" fill-rule="nonzero"/></g></g></g></g></g><path fill="#ffffff" d="M 23.476562 20.867188 C 23.734375 21.113281 24.6875 20.808594 24.9375 20.214844 C 25.125 19.761719 24.765625 19.484375 24.625 18.503906 C 24.542969 17.929688 24.566406 17.359375 24.6875 16.792969 C 24.914062 15.789062 25.453125 15.125 25.777344 14.738281 C 26.105469 14.339844 26.539062 13.921875 27.578125 13.242188 C 29.605469 11.921875 31.082031 11.480469 31.027344 11.3125 C 30.988281 11.191406 30.113281 11.257812 29.257812 11.625 C 28.253906 12.054688 28.261719 12.476562 27.234375 12.996094 C 26.089844 13.574219 25.75 13.21875 25.183594 13.773438 C 25.011719 13.945312 24.765625 14.59375 24.28125 15.886719 C 23.910156 16.886719 23.855469 17.078125 23.816406 17.351562 C 23.703125 18.105469 23.882812 18.210938 23.816406 19 C 23.71875 20.183594 23.25 20.652344 23.476562 20.867188 Z M 23.476562 20.867188 " fill-opacity="0.53" fill-rule="nonzero"/><path fill="#ffffff" d="M 28.417969 22.179688 C 28.570312 22.519531 28.777344 22.820312 29.039062 23.082031 C 29.523438 23.59375 30.101562 23.949219 30.777344 24.140625 C 31.753906 24.40625 32.558594 24.171875 33.265625 23.953125 C 34.21875 23.660156 35.523438 23.257812 36.25 21.992188 C 37.078125 20.542969 36.613281 18.886719 36.527344 18.882812 C 36.460938 18.882812 36.605469 19.976562 35.96875 21.121094 C 35.609375 21.753906 35.121094 22.261719 34.507812 22.644531 C 32.777344 23.703125 30.195312 23.421875 29.101562 22.117188 C 28.453125 21.34375 28.453125 20.375 28.292969 20.40625 C 28.132812 20.433594 28.058594 21.351562 28.417969 22.179688 Z M 28.417969 22.179688 " fill-opacity="0.53" fill-rule="nonzero"/><path fill="#ffffff" d="M 32.097656 11.535156 C 32.375 11.570312 32.214844 12.554688 32.796875 12.886719 C 33.175781 13.105469 33.496094 12.832031 33.917969 13.121094 C 34.113281 13.257812 34.207031 13.433594 34.382812 13.773438 C 34.671875 14.339844 34.652344 14.570312 34.800781 14.894531 C 35.109375 15.570312 35.9375 16.207031 36.621094 16.109375 C 37.246094 16.019531 37.414062 15.359375 37.878906 15.457031 C 38.273438 15.539062 38.320312 16.050781 38.8125 16.15625 C 39.199219 16.238281 39.445312 15.980469 39.511719 16.0625 C 39.65625 16.242188 38.710938 17.773438 37.597656 17.742188 C 37.273438 17.734375 36.882812 17.441406 36.109375 16.855469 C 35.0625 16.066406 35.0625 15.871094 34.289062 15.410156 C 33.960938 15.210938 33.738281 15.109375 33.171875 14.753906 C 32.5 14.332031 32.519531 14.289062 32.332031 14.199219 C 31.222656 13.683594 29.746094 14.886719 29.628906 14.707031 C 29.539062 14.570312 30.519531 14.066406 31.257812 12.886719 C 31.722656 12.15625 31.875 11.503906 32.097656 11.535156 Z M 32.097656 11.535156 " fill-opacity="0.1" fill-rule="nonzero"/><path fill="#ffffff" d="M 27.53125 23.71875 C 28.023438 24.378906 28.628906 24.910156 29.351562 25.304688 C 29.65625 25.46875 30.402344 25.859375 31.402344 25.914062 C 32.746094 25.984375 33.730469 25.40625 34.617188 24.886719 C 35.449219 24.398438 36.757812 23.628906 37.554688 22.132812 C 38.558594 20.25 38.164062 18.324219 38.488281 18.304688 C 38.75 18.285156 39.027344 19.585938 39.09375 19.890625 C 39.25 20.632812 39.421875 21.425781 39.1875 22.410156 C 38.976562 23.292969 38.535156 23.9375 38.300781 24.277344 C 38.121094 24.542969 37.992188 24.726562 37.789062 24.933594 C 36.792969 25.925781 35.894531 25.460938 34.898438 26.332031 C 34.304688 26.847656 34.316406 27.273438 33.777344 27.40625 C 33.308594 27.523438 32.957031 27.289062 32.519531 27.125 C 31.273438 26.660156 30.578125 27.222656 29.347656 27.171875 C 28.007812 27.117188 26.484375 26.347656 25.714844 25.164062 C 24.308594 23.011719 25.65625 19.875 26.085938 19.890625 C 26.421875 19.90625 26.113281 21.828125 27.53125 23.71875 Z M 27.53125 23.71875 " fill-opacity="0.1" fill-rule="nonzero"/><path fill="#ffffff" d="M 27.546875 21.246094 C 27.703125 21.214844 27.191406 19.949219 27.734375 18.503906 C 28.402344 16.726562 30.246094 15.820312 30.125 15.640625 C 30.03125 15.5 28.976562 16.210938 28.726562 15.953125 C 28.421875 15.632812 29.660156 14.214844 29.378906 13.929688 C 29.195312 13.738281 28.371094 14.09375 27.792969 14.675781 C 26.902344 15.578125 26.8125 16.804688 26.769531 17.570312 C 26.652344 19.566406 27.363281 21.277344 27.546875 21.246094 Z M 27.546875 21.246094 " fill-opacity="0.27" fill-rule="nonzero"/><path fill="#ffffff" d="M 22.03125 19.28125 C 22.121094 19.292969 22.355469 17.863281 23.054688 15.453125 C 23.507812 13.910156 23.863281 12.933594 24.6875 12.605469 C 25.066406 12.457031 25.128906 12.605469 25.621094 12.421875 C 26.347656 12.140625 26.5 11.699219 27.4375 10.878906 C 28.160156 10.246094 28.59375 10.054688 28.558594 9.992188 C 28.492188 9.875 26.816406 10.355469 25.339844 11.484375 C 23.109375 13.203125 22.445312 15.570312 22.261719 16.25 C 21.835938 17.863281 21.941406 19.273438 22.03125 19.28125 Z M 22.03125 19.28125 " fill-opacity="0.28" fill-rule="nonzero"/><path fill="#ffffff" d="M 22.589844 22.597656 C 22.742188 22.546875 22.992188 25.421875 25.152344 27.359375 C 27.691406 29.632812 31.28125 29.203125 31.261719 29.414062 C 31.242188 29.585938 28.875 29.925781 26.597656 28.761719 C 25.523438 28.199219 24.640625 27.417969 23.941406 26.425781 C 22.664062 24.613281 22.464844 22.640625 22.589844 22.597656 Z M 22.589844 22.597656 " fill-opacity="0.28" fill-rule="nonzero"/><g fill="#d68c45" fill-opacity="1"><g transform="translate(8.251168, 24.482619)"><g><path d="M 2.621094 -0.339844 C 3.71875 -1.058594 4.878906 -0.761719 6.039062 -0.839844 C 9.4375 -1.121094 11.597656 -3.300781 11.738281 -6.699219 C 11.835938 -9.4375 10.496094 -11.398438 7.9375 -12.355469 C 6.476562 -12.898438 5.019531 -13.097656 3.480469 -13.097656 C 2.859375 -13.078125 2.238281 -13.078125 1.640625 -12.996094 C 0.558594 -12.855469 0.199219 -12.335938 0.519531 -11.238281 C 0.699219 -10.597656 0.761719 -9.9375 0.839844 -9.277344 C 1.101562 -7.058594 1.101562 -4.820312 1.179688 -2.578125 C 1.199219 -2.019531 1.199219 -1.460938 1.417969 -0.941406 C 1.660156 -0.417969 2.179688 -0.0390625 2.621094 -0.339844 Z M 3.019531 -9.796875 C 2.960938 -10.898438 3 -10.917969 4.097656 -10.917969 C 5.398438 -10.917969 6.636719 -10.578125 7.796875 -10.039062 C 9.15625 -9.398438 9.675781 -8.15625 9.496094 -6.359375 C 9.335938 -4.757812 8.4375 -3.578125 6.9375 -3.199219 C 6.339844 -3.058594 5.71875 -3.039062 5.320312 -2.9375 C 3.640625 -2.898438 3.4375 -3.097656 3.339844 -4.640625 C 3.238281 -6.359375 3.121094 -8.058594 3.019531 -9.796875 Z M 3.019531 -9.796875 "/></g></g></g><g fill="#d68c45" fill-opacity="1"><g transform="translate(43.01114, 24.482619)"><g><path d="M 9.816406 -1.398438 C 10.515625 -2.238281 10.917969 -3.199219 11.15625 -4.238281 C 11.457031 -5.738281 11.515625 -7.238281 11.496094 -8.757812 C 11.496094 -9.71875 11.515625 -10.636719 11.496094 -11.597656 C 11.476562 -12.238281 11.15625 -12.675781 10.496094 -12.71875 C 9.816406 -12.757812 9.476562 -12.316406 9.378906 -11.695312 C 9.316406 -11.316406 9.296875 -10.917969 9.296875 -10.515625 C 9.277344 -9.175781 9.238281 -7.839844 9.238281 -6.476562 C 9.21875 -5.597656 9.058594 -4.699219 8.757812 -3.859375 C 8.296875 -2.578125 7.136719 -1.660156 6.039062 -1.679688 C 4.660156 -1.738281 3.777344 -2.480469 3.238281 -3.738281 C 2.660156 -5.179688 2.4375 -6.636719 2.539062 -8.179688 C 2.597656 -9.296875 2.679688 -10.417969 2.757812 -11.539062 C 2.78125 -12.195312 2.460938 -12.636719 1.820312 -12.695312 C 1.160156 -12.796875 0.78125 -12.355469 0.660156 -11.738281 C 0.601562 -11.476562 0.519531 -11.21875 0.519531 -10.9375 C 0.460938 -9.359375 0.359375 -7.796875 0.417969 -6.238281 C 0.441406 -4.878906 0.859375 -3.578125 1.460938 -2.378906 C 2.839844 0.417969 7 2.019531 9.816406 -1.398438 Z M 9.816406 -1.398438 "/></g></g></g><g fill="#d68c45" fill-opacity="1"><g transform="translate(54.906449, 24.482619)"><g><path d="M 5.4375 -0.601562 C 8.257812 -0.460938 10.355469 -2.160156 10.917969 -5 C 11.238281 -6.660156 10.835938 -7.117188 9.117188 -7.078125 C 8.816406 -7.078125 8.539062 -7.039062 8.277344 -7.019531 L 8.277344 -7.039062 C 7.617188 -7 6.917969 -6.976562 6.257812 -6.859375 C 5.597656 -6.777344 5.078125 -6.378906 5.21875 -5.597656 C 5.296875 -5 5.738281 -4.679688 6.398438 -4.699219 C 6.816406 -4.699219 7.199219 -4.757812 7.578125 -4.757812 C 7.839844 -4.757812 8.15625 -4.839844 8.296875 -4.519531 C 8.4375 -4.199219 8.199219 -3.960938 8.039062 -3.738281 C 6.660156 -2.121094 3.980469 -2.558594 3 -4.578125 C 1.898438 -6.777344 3.097656 -10.21875 5.320312 -11.257812 C 6.199219 -11.636719 7.078125 -11.617188 7.839844 -10.976562 C 8.4375 -10.457031 8.9375 -9.917969 9.117188 -9.058594 C 9.21875 -8.4375 9.71875 -8.117188 10.378906 -8.277344 C 11.015625 -8.398438 11.195312 -8.9375 11.195312 -9.539062 C 11.195312 -9.738281 11.15625 -9.996094 11.078125 -10.199219 C 10.097656 -12.757812 6.976562 -14.976562 3.878906 -12.9375 C 1.28125 -11.257812 0.261719 -8.738281 0.417969 -5.757812 C 0.539062 -2.917969 2.820312 -0.71875 5.4375 -0.601562 Z M 5.4375 -0.601562 "/></g></g></g><g fill="#d68c45" fill-opacity="1"><g transform="translate(66.501877, 24.482619)"><g><path d="M 10.4375 0.359375 C 11.117188 0.320312 11.398438 -0.121094 11.417969 -0.761719 C 11.4375 -0.898438 11.4375 -1 11.417969 -1.101562 C 10.957031 -4.898438 10.957031 -8.699219 10.796875 -12.515625 C 10.777344 -12.675781 10.777344 -12.855469 10.71875 -12.996094 C 10.558594 -13.398438 10.277344 -13.65625 9.835938 -13.714844 C 9.335938 -13.757812 8.976562 -13.535156 8.757812 -13.078125 C 8.558594 -12.636719 8.558594 -12.21875 8.578125 -11.777344 C 8.597656 -10.878906 8.65625 -9.976562 8.757812 -9.078125 C 8.835938 -8.378906 8.558594 -8.058594 7.839844 -8.039062 C 6.597656 -7.976562 5.359375 -7.898438 4.117188 -7.816406 C 2.757812 -7.757812 2.71875 -7.777344 2.640625 -9.15625 C 2.597656 -10.21875 2.621094 -11.277344 2.558594 -12.316406 C 2.5 -13.015625 2.160156 -13.535156 1.359375 -13.476562 C 0.699219 -13.398438 0.398438 -12.9375 0.398438 -12.296875 L 0.398438 -6.917969 L 0.441406 -6.917969 L 0.679688 -1.378906 C 0.699219 -1.160156 0.699219 -0.941406 0.761719 -0.71875 C 0.859375 -0.0390625 1.21875 0.441406 1.980469 0.339844 C 2.679688 0.261719 2.960938 -0.261719 2.898438 -0.839844 C 2.757812 -2.160156 2.78125 -3.417969 2.757812 -4.699219 C 2.738281 -5.339844 3.039062 -5.597656 3.640625 -5.636719 L 7.359375 -5.820312 C 8.835938 -5.878906 8.816406 -5.878906 8.898438 -4.4375 C 8.976562 -3.140625 9.117188 -1.859375 9.277344 -0.578125 C 9.335938 0.0390625 9.777344 0.441406 10.4375 0.359375 Z M 10.4375 0.359375 "/></g></g></g><g fill="#d68c45" fill-opacity="1"><g transform="translate(78.337207, 24.482619)"><g><path d="M 1.71875 0.578125 C 2.199219 0.539062 2.539062 0.238281 2.621094 -0.28125 C 2.679688 -0.601562 2.660156 -0.941406 2.660156 -1.257812 L 2.660156 -7.160156 C 2.679688 -7.5 2.5 -7.957031 3 -8.199219 C 3.460938 -7.957031 3.738281 -7.519531 4 -7.097656 C 5.480469 -4.539062 7.957031 -2.839844 9.578125 -0.398438 C 9.878906 0.0585938 10.355469 0.21875 10.878906 0.0585938 C 11.378906 -0.078125 11.636719 -0.460938 11.65625 -0.941406 C 11.695312 -1.519531 11.71875 -2.058594 11.65625 -2.640625 C 11.417969 -4.578125 11.476562 -6.519531 11.65625 -8.476562 C 11.777344 -10.117188 11.71875 -11.738281 11.71875 -13.375 C 11.695312 -14.015625 11.316406 -14.4375 10.65625 -14.4375 C 10.058594 -14.4375 9.71875 -14.054688 9.597656 -13.515625 C 9.496094 -13.015625 9.539062 -12.515625 9.496094 -11.996094 C 9.4375 -9.636719 9.398438 -7.199219 9.316406 -4.519531 C 8.15625 -5.199219 7.558594 -5.898438 7 -6.699219 C 5.578125 -8.636719 4.140625 -10.597656 2.71875 -12.515625 C 2.378906 -12.957031 1.960938 -13.335938 1.28125 -13.15625 C 0.738281 -12.957031 0.578125 -12.515625 0.578125 -11.957031 C 0.5 -8.417969 0.300781 -4.898438 0.441406 -1.378906 C 0.441406 -0.917969 0.460938 -0.460938 0.640625 -0.0585938 C 0.859375 0.378906 1.21875 0.660156 1.71875 0.578125 Z M 1.71875 0.578125 "/></g></g></g><g fill="#d68c45" fill-opacity="1"><g transform="translate(90.472418, 24.482619)"><g><path d="M 9.816406 -1.398438 C 10.515625 -2.238281 10.917969 -3.199219 11.15625 -4.238281 C 11.457031 -5.738281 11.515625 -7.238281 11.496094 -8.757812 C 11.496094 -9.71875 11.515625 -10.636719 11.496094 -11.597656 C 11.476562 -12.238281 11.15625 -12.675781 10.496094 -12.71875 C 9.816406 -12.757812 9.476562 -12.316406 9.378906 -11.695312 C 9.316406 -11.316406 9.296875 -10.917969 9.296875 -10.515625 C 9.277344 -9.175781 9.238281 -7.839844 9.238281 -6.476562 C 9.21875 -5.597656 9.058594 -4.699219 8.757812 -3.859375 C 8.296875 -2.578125 7.136719 -1.660156 6.039062 -1.679688 C 4.660156 -1.738281 3.777344 -2.480469 3.238281 -3.738281 C 2.660156 -5.179688 2.4375 -6.636719 2.539062 -8.179688 C 2.597656 -9.296875 2.679688 -10.417969 2.757812 -11.539062 C 2.78125 -12.195312 2.460938 -12.636719 1.820312 -12.695312 C 1.160156 -12.796875 0.78125 -12.355469 0.660156 -11.738281 C 0.601562 -11.476562 0.519531 -11.21875 0.519531 -10.9375 C 0.460938 -9.359375 0.359375 -7.796875 0.417969 -6.238281 C 0.441406 -4.878906 0.859375 -3.578125 1.460938 -2.378906 C 2.839844 0.417969 7 2.019531 9.816406 -1.398438 Z M 9.816406 -1.398438 "/></g></g></g><g fill="#d68c45" fill-opacity="1"><g transform="translate(102.367727, 24.482619)"><g><path d="M 6.378906 -0.5 C 6.9375 -0.519531 7.316406 -0.859375 7.417969 -1.441406 C 7.457031 -1.71875 7.417969 -1.980469 7.417969 -2.28125 C 7.339844 -4.339844 7.257812 -6.417969 7.160156 -8.476562 C 7.097656 -10.578125 6.9375 -10.4375 9.117188 -10.4375 C 10.015625 -10.4375 10.9375 -10.4375 11.816406 -10.457031 C 12.457031 -10.515625 12.875 -10.898438 12.875 -11.558594 C 12.875 -12.15625 12.515625 -12.476562 11.9375 -12.558594 C 11.558594 -12.617188 11.15625 -12.617188 10.757812 -12.617188 C 9.65625 -12.636719 8.519531 -12.617188 7.417969 -12.617188 C 5.398438 -12.558594 3.398438 -12.398438 1.378906 -12.15625 C 0.738281 -12.058594 0.378906 -11.675781 0.398438 -11.015625 C 0.417969 -10.316406 0.917969 -10.058594 1.539062 -10.058594 C 2.28125 -10.078125 2.980469 -10.097656 3.71875 -10.199219 C 4.578125 -10.296875 4.878906 -9.957031 4.917969 -9.097656 C 5.097656 -6.9375 5.179688 -4.839844 5.199219 -2.71875 C 5.199219 -2.238281 5.21875 -1.679688 5.378906 -1.199219 C 5.5 -0.78125 5.878906 -0.480469 6.378906 -0.5 Z M 6.378906 -0.5 "/></g></g></g><g fill="#d68c45" fill-opacity="1"><g transform="translate(115.642495, 24.482619)"><g><path d="M 5.199219 0.640625 C 6.4375 0.679688 7.65625 0.441406 8.457031 0.0585938 C 10.335938 -0.859375 10.9375 -3.058594 9.796875 -4.757812 C 8.996094 -6 7.878906 -6.796875 6.457031 -7.136719 C 5.519531 -7.359375 4.597656 -7.597656 3.699219 -7.898438 C 3.121094 -8.078125 2.679688 -8.417969 2.640625 -9.058594 C 2.597656 -9.699219 2.839844 -10.238281 3.398438 -10.636719 C 4.71875 -11.597656 6.457031 -11.277344 7.339844 -9.878906 C 7.539062 -9.597656 7.65625 -9.316406 7.777344 -8.996094 C 8.078125 -8.316406 8.457031 -7.777344 9.316406 -8.078125 C 9.996094 -8.359375 10.117188 -8.917969 9.777344 -9.957031 C 8.699219 -12.917969 5.738281 -14.136719 2.800781 -12.855469 C 1.179688 -12.097656 0.5 -10.777344 0.398438 -9.136719 C 0.300781 -7.71875 1.359375 -6.398438 3.019531 -5.820312 C 3.960938 -5.5 4.9375 -5.238281 5.898438 -5 C 6.777344 -4.757812 7.476562 -4.359375 7.917969 -3.597656 C 8.238281 -3.058594 8.21875 -2.519531 7.71875 -2.097656 C 6.320312 -0.898438 3.800781 -1.441406 3 -3.058594 C 2.898438 -3.359375 2.757812 -3.679688 2.621094 -3.960938 C 2.320312 -4.519531 1.878906 -4.839844 1.238281 -4.558594 C 0.601562 -4.320312 0.519531 -3.757812 0.660156 -3.160156 C 1.101562 -0.699219 2.640625 0.578125 5.199219 0.640625 Z M 5.199219 0.640625 "/></g></g></g><g fill="#d68c45" fill-opacity="1"><g transform="translate(126.41824, 24.482619)"><g><path d="M 1.71875 -3.859375 C 2.257812 -3.839844 2.597656 -4.039062 2.78125 -4.539062 C 2.980469 -5.140625 3 -5.757812 3.019531 -6.378906 C 3.121094 -8.238281 2.960938 -10.15625 3.300781 -11.917969 C 3.398438 -12.796875 3.339844 -13.457031 2.5 -13.65625 C 1.839844 -13.816406 1.339844 -13.476562 1.21875 -12.855469 C 0.78125 -10.136719 0.78125 -7.398438 0.78125 -4.640625 C 0.78125 -4.160156 1.21875 -3.898438 1.71875 -3.859375 Z M 0.398438 -1 C 0.398438 -0.28125 1.058594 0.359375 1.800781 0.417969 C 2.621094 0.441406 3.339844 -0.480469 3.339844 -1.460938 C 3.339844 -2.140625 2.917969 -2.597656 2.179688 -2.597656 C 1.199219 -2.597656 0.378906 -1.839844 0.398438 -1 Z M 0.398438 -1 "/></g></g></g></svg>